<svg id="Layer_1" data-name="Layer 1" xmlns="http://www.w3.org/2000/svg" xmlns:xlink="http://www.w3.org/1999/xlink" viewBox="0 0 1273 2662"><defs><style>.cls-1,.cls-2,.cls-3{fill:none;}.cls-2,.cls-3{stroke:#231f20;stroke-width:0.3px;}.cls-2{stroke-linejoin:bevel;}.cls-4{stroke:#2a7238;stroke-miterlimit:10;fill:url(#Sky);}.cls-5{fill:url(#Hatching_Dense);}</style><linearGradient id="Sky" x1="9.87" y1="1331.51" x2="932.64" y2="1330" gradientUnits="userSpaceOnUse"><stop offset="0" stop-color="#cce0f4"/><stop offset="0.06" stop-color="#c3dcf2"/><stop offset="0.17" stop-color="#a9d2ee"/><stop offset="0.31" stop-color="#80c2e7"/><stop offset="0.46" stop-color="#47acde"/><stop offset="0.57" stop-color="#1e9cd7"/><stop offset="0.87" stop-color="#0075be"/><stop offset="0.99" stop-color="#005b97"/></linearGradient><pattern id="Hatching_Dense" data-name="Hatching Dense" width="72" height="72" patternUnits="userSpaceOnUse" viewBox="0 0 72 72"><rect class="cls-1" width="72" height="72"/><polyline class="cls-2" points="30.84 71.28 32.52 72.98 50.19 90.81"/><polyline class="cls-3" points="35.24 71.2 37.1 73.09 44.63 80.75"/><polyline class="cls-2" points="45.63 71.25 45.78 73.31 46.56 84.25"/><polyline class="cls-2" points="65.72 71.24 66.21 72.89 70.94 89"/><polyline class="cls-2" points="48.89 71.25 49.07 73.25 50.38 88"/><polyline class="cls-2" points="53.53 71.31 53.76 73.07 55.63 87.75"/><polyline class="cls-2" points="57.18 71.31 57.43 73.06 59.44 86.75"/><polyline class="cls-2" points="62.24 71.31 62.64 73 66.19 88.06"/><polyline class="cls-3" points="40.8 71.2 42.56 72.88 44.13 74.38"/><polyline class="cls-3" points="25.57 71.18 27.13 73.12 42.81 92.69"/><polyline class="cls-3" points="4.25 70.75 6.75 73.25 9.63 76.13"/><polyline class="cls-3" points="0.81 71.44 2.03 72.91 6.94 78.81"/><polyline class="cls-2" points="69.38 71.25 71.53 74.23 72.71 75.86"/><polyline class="cls-2" points="68.85 70.92 69.72 73.05 71.48 77.36 72.56 80"/><polyline class="cls-2" points="-2.63 71.25 -0.47 74.23 0.71 75.86"/><polyline class="cls-2" points="-3.15 70.92 -2.28 73.05 -0.52 77.36 0.56 80"/><polyline class="cls-2" points="71.53 2.23 72.71 3.86 76.56 9.19"/><polyline class="cls-2" points="71.48 5.36 72.56 8 74.88 13.69"/><polyline class="cls-3" points="71.36 22.05 72.59 20.65 80.75 11.38"/><polyline class="cls-3" points="71.25 30.88 72.69 29.44 90.25 11.88"/><polyline class="cls-3" points="71.43 17.25 72.76 15.88 77.25 11.25"/><polyline class="cls-3" points="71.42 25.61 72.68 24.36 85.5 11.63"/><polyline class="cls-2" points="71.19 54.76 72.69 53.81 77.13 51"/><polyline class="cls-3" points="71.18 58.05 72.79 57.03 80.38 52.25"/><polyline class="cls-3" points="71.01 63.95 72.73 62.79 83.88 55.25"/><polyline class="cls-3" points="74.19 65.25 72.68 66.1 71 67.05"/><polyline class="cls-3" points="71.12 51.46 72.56 51.7 74.38 52"/><polyline class="cls-3" points="73.75 48.25 72.68 47.9 71.01 47.34"/><polyline class="cls-2" points="74.75 50.13 72.62 49.65 71.06 49.31"/><polyline class="cls-3" points="71.34 39.27 72.73 40.33 76.88 43.5"/><polyline class="cls-3" points="71.23 42.54 72.81 43.5 76.13 45.5"/><polyline class="cls-2" points="71.34 34.59 72.9 35.97 78.88 41.25"/><polyline class="cls-2" points="71.06 45.81 72.68 46.77 74.13 47.63"/><polyline class="cls-3" points="72 66.5 76.25 70.75 78.75 73.25"/><polyline class="cls-3" points="69.63 67.63 72.81 71.44 74.03 72.91"/><line class="cls-3" x1="35.38" y1="18.25" x2="40.13" y2="20.5"/><line class="cls-3" x1="35.13" y1="15.25" x2="38.38" y2="17.5"/><line class="cls-3" x1="8.63" y1="42" x2="32" y2="41.5"/><line class="cls-3" x1="7.63" y1="45.5" x2="33.5" y2="45.25"/><line class="cls-2" x1="3.25" y1="34.13" x2="22.13" y2="12"/><line class="cls-2" x1="22.13" y1="15.5" x2="22" y2="37.5"/><line class="cls-3" x1="7.13" y1="8.25" x2="31.63" y2="9.25"/><line class="cls-3" x1="44.13" y1="42.25" x2="35.63" y2="37.75"/><line class="cls-3" x1="8.75" y1="38.25" x2="1.31" y2="32.44"/><line class="cls-3" x1="29" y1="12.5" x2="28.88" y2="37.13"/><line class="cls-3" x1="32" y1="12.5" x2="31.88" y2="36.94"/><line class="cls-3" x1="24.81" y1="12.19" x2="25.25" y2="37.25"/><line class="cls-3" x1="19.13" y1="18.5" x2="19" y2="37.69"/><line class="cls-3" x1="15.13" y1="24" x2="14.06" y2="37.94"/><line class="cls-3" x1="11.38" y1="27" x2="10.44" y2="38.19"/><line class="cls-3" x1="8.13" y1="31.25" x2="7.38" y2="35.25"/><line class="cls-3" x1="8.38" y1="5.5" x2="28.88" y2="6.25"/><line class="cls-3" x1="11.31" y1="2.5" x2="25.63" y2="3"/><line class="cls-2" x1="4.88" y1="48.5" x2="32.75" y2="48.5"/><line class="cls-2" x1="52.13" y1="37" x2="42.75" y2="45"/><line class="cls-2" x1="50.63" y1="55.75" x2="34" y2="44"/><line class="cls-2" x1="45.13" y1="46.25" x2="51.81" y2="40.06"/><line class="cls-3" x1="44.63" y1="48.25" x2="34.81" y2="40.13"/><line class="cls-2" x1="26.38" y1="52" x2="43.13" y2="69.5"/><line class="cls-2" x1="30.63" y1="51.75" x2="44.13" y2="65"/><line class="cls-2" x1="33.88" y1="50.75" x2="42.13" y2="59.25"/><line class="cls-2" x1="33.25" y1="46.63" x2="43.88" y2="56.25"/><line class="cls-3" x1="47.63" y1="19.5" x2="53.38" y2="33.75"/><line class="cls-3" x1="59.5" y1="16.38" x2="67.63" y2="18.75"/><line class="cls-3" x1="57.5" y1="16.88" x2="65.38" y2="21.75"/><line class="cls-3" x1="55" y1="17.63" x2="63.38" y2="23.75"/><line class="cls-3" x1="52.25" y1="18.38" x2="62.63" y2="27.13"/><line class="cls-3" x1="52.13" y1="20.25" x2="60.63" y2="31"/><line class="cls-3" x1="49.88" y1="20.5" x2="59.88" y2="36.75"/><line class="cls-3" x1="2.63" y1="66.25" x2="15.13" y2="57.5"/><line class="cls-3" x1="16.63" y1="59.75" x2="4.38" y2="68.5"/><line class="cls-3" x1="18.38" y1="61.75" x2="6.38" y2="70.75"/><line class="cls-3" x1="53.38" y1="33.75" x2="55.63" y2="39.75"/><line class="cls-3" x1="54.69" y1="39.88" x2="45.75" y2="48.88"/><line class="cls-3" x1="12.38" y1="69.5" x2="22.13" y2="70"/><line class="cls-3" x1="54.88" y1="47.75" x2="49.13" y2="53.25"/><line class="cls-3" x1="58.44" y1="51.38" x2="55.63" y2="56.5"/><line class="cls-3" x1="60.63" y1="54.75" x2="67.13" y2="55.25"/><line class="cls-3" x1="56.63" y1="48.75" x2="52.38" y2="56.25"/><line class="cls-3" x1="35.63" y1="21.25" x2="48.13" y2="24"/><line class="cls-3" x1="36.38" y1="25" x2="49.38" y2="28"/><line class="cls-3" x1="35.31" y1="28.63" x2="51.38" y2="32.25"/><line class="cls-3" x1="35.69" y1="32.19" x2="50.63" y2="35.75"/><line class="cls-3" x1="35.63" y1="34.88" x2="48.38" y2="38.25"/><line class="cls-3" x1="39.13" y1="37.75" x2="46.19" y2="40.31"/><line class="cls-3" x1="13.88" y1="67.75" x2="20.88" y2="68"/><line class="cls-3" x1="15.63" y1="66" x2="19.25" y2="66.19"/><polyline class="cls-2" points="30.84 -0.72 32.52 0.98 50.19 18.81"/><polyline class="cls-3" points="35.24 -0.8 37.1 1.09 44.63 8.75"/><polyline class="cls-2" points="45.63 -0.75 45.78 1.31 46.56 12.25"/><polyline class="cls-2" points="65.72 -0.76 66.21 0.89 70.94 17"/><polyline class="cls-2" points="48.89 -0.75 49.07 1.25 50.38 16"/><polyline class="cls-2" points="53.53 -0.69 53.76 1.07 55.63 15.75"/><polyline class="cls-2" points="57.18 -0.69 57.43 1.06 59.44 14.75"/><polyline class="cls-2" points="62.24 -0.69 62.64 1 66.19 16.06"/><polyline class="cls-3" points="40.8 -0.8 42.56 0.88 44.13 2.38"/><polyline class="cls-3" points="25.57 -0.82 27.13 1.12 42.81 20.69"/><polyline class="cls-3" points="4.25 -1.25 6.75 1.25 9.63 4.13"/><polyline class="cls-3" points="0.81 -0.56 2.03 0.91 6.94 6.81"/><polyline class="cls-2" points="-0.47 2.23 0.71 3.86 4.56 9.19"/><polyline class="cls-2" points="-0.52 5.36 0.56 8 2.88 13.69"/><polyline class="cls-3" points="-0.64 22.05 0.59 20.65 8.75 11.38"/><polyline class="cls-3" points="-0.75 30.88 0.69 29.44 18.25 11.88"/><polyline class="cls-3" points="-0.57 17.25 0.76 15.88 5.25 11.25"/><polyline class="cls-3" points="-0.58 25.61 0.68 24.36 13.5 11.63"/><polyline class="cls-2" points="-0.81 54.76 0.69 53.81 5.13 51"/><polyline class="cls-3" points="-0.82 58.05 0.79 57.03 8.38 52.25"/><polyline class="cls-3" points="-0.99 63.95 0.73 62.79 11.88 55.25"/><polyline class="cls-3" points="2.19 65.25 0.68 66.1 -1 67.05"/><polyline class="cls-3" points="-0.88 51.46 0.56 51.7 2.38 52"/><polyline class="cls-3" points="1.75 48.25 0.68 47.9 -0.99 47.34"/><polyline class="cls-2" points="2.75 50.13 0.62 49.65 -0.94 49.31"/><polyline class="cls-3" points="-0.66 39.27 0.73 40.33 4.88 43.5"/><polyline class="cls-3" points="-0.77 42.54 0.81 43.5 4.13 45.5"/><polyline class="cls-2" points="-0.66 34.59 0.9 35.97 6.88 41.25"/><polyline class="cls-2" points="-0.94 45.81 0.68 46.77 2.13 47.63"/><polyline class="cls-2" points="11.44 51.69 30.84 71.28 32.52 72.98"/><polyline class="cls-3" points="15.38 51 35.24 71.2 37.1 73.09"/><polyline class="cls-2" points="44.88 60.75 45.63 71.25 45.78 73.31"/><polyline class="cls-2" points="64.63 67.5 65.72 71.24 66.21 72.89"/><polyline class="cls-2" points="47.63 57 48.89 71.25 49.07 73.25"/><polyline class="cls-2" points="51.88 58.25 53.53 71.31 53.76 73.07"/><polyline class="cls-2" points="55.38 59 57.18 71.31 57.43 73.06"/><polyline class="cls-2" points="59.25 58.63 62.24 71.31 62.64 73"/><polyline class="cls-3" points="20.38 51.75 40.8 71.2 42.56 72.88"/><polyline class="cls-3" points="20.63 65 25.57 71.18 27.13 73.12"/><polyline class="cls-3" points="0 66.5 4.25 70.75 6.75 73.25"/><polyline class="cls-3" points="-2.38 67.63 0.81 71.44 2.03 72.91"/><polyline class="cls-2" points="69.38 -0.75 71.53 2.23 72.71 3.86"/><polyline class="cls-2" points="68.85 -1.08 69.72 1.05 71.48 5.36 72.56 8"/><polyline class="cls-3" points="60.63 34.25 71.36 22.05 72.59 20.65"/><polyline class="cls-3" points="61.88 40.25 71.25 30.88 72.69 29.44"/><polyline class="cls-3" points="63.19 25.75 71.43 17.25 72.76 15.88"/><polyline class="cls-3" points="46.63 50.25 71.42 25.61 72.68 24.36"/><polyline class="cls-2" points="63.13 59.88 71.19 54.76 72.69 53.81"/><polyline class="cls-3" points="62.13 63.75 71.18 58.05 72.79 57.03"/><polyline class="cls-3" points="66.88 66.75 71.01 63.95 72.73 62.79"/><polyline class="cls-3" points="72.68 66.1 70.99 67.05 68.88 68.25"/><polyline class="cls-3" points="57.88 49.25 71.12 51.46 72.56 51.7"/><polyline class="cls-3" points="72.68 47.9 71.01 47.34 57.88 43"/><polyline class="cls-2" points="72.62 49.65 71.06 49.31 56.13 46"/><polyline class="cls-3" points="68.38 37 71.34 39.27 72.73 40.33"/><polyline class="cls-3" points="65.38 39 71.23 42.54 72.81 43.5"/><polyline class="cls-2" points="69.25 32.75 71.34 34.59 72.9 35.97"/><polyline class="cls-2" points="63.38 41.25 71.06 45.81 72.68 46.77"/><line class="cls-3" x1="69.63" y1="67.63" x2="72.8" y2="71.44"/><polyline class="cls-2" points="68.38 69.75 68.85 70.92 69.72 73.05"/><polyline class="cls-2" points="-2.63 -0.75 -0.47 2.23 0.71 3.86"/><polyline class="cls-2" points="-3.15 -1.08 -2.28 1.05 -0.52 5.36 0.56 8"/><polyline class="cls-3" points="-11.38 34.25 -0.64 22.05 0.59 20.65"/><polyline class="cls-3" points="-10.13 40.25 -0.75 30.88 0.69 29.44"/><polyline class="cls-3" points="-8.81 25.75 -0.57 17.25 0.76 15.88"/><polyline class="cls-3" points="-25.38 50.25 -0.58 25.61 0.68 24.36"/><polyline class="cls-2" points="-8.88 59.88 -0.81 54.76 0.69 53.81"/><polyline class="cls-3" points="-9.88 63.75 -0.82 58.05 0.79 57.03"/><polyline class="cls-3" points="-5.13 66.75 -0.99 63.95 0.73 62.79"/><polyline class="cls-3" points="0.68 66.1 -1.01 67.05 -3.13 68.25"/><polyline class="cls-3" points="-14.13 49.25 -0.88 51.46 0.56 51.7"/><polyline class="cls-3" points="0.68 47.9 -0.99 47.34 -14.13 43"/><polyline class="cls-2" points="0.62 49.65 -0.94 49.31 -15.88 46"/><polyline class="cls-3" points="-3.63 37 -0.66 39.27 0.73 40.33"/><polyline class="cls-3" points="-6.63 39 -0.77 42.54 0.81 43.5"/><polyline class="cls-2" points="-2.75 32.75 -0.66 34.59 0.9 35.97"/><polyline class="cls-2" points="-8.63 41.25 -0.94 45.81 0.68 46.77"/><line class="cls-3" x1="-2.38" y1="67.63" x2="0.8" y2="71.44"/><polyline class="cls-3" points="72 -5.5 76.25 -1.25 78.75 1.25"/><polyline class="cls-3" points="69.63 -4.38 72.81 -0.56 74.03 0.91"/><polyline class="cls-2" points="11.44 -20.31 30.84 -0.72 32.52 0.98"/><polyline class="cls-3" points="15.38 -21 35.24 -0.8 37.1 1.09"/><polyline class="cls-2" points="44.88 -11.25 45.63 -0.75 45.78 1.31"/><polyline class="cls-2" points="64.63 -4.5 65.72 -0.76 66.21 0.89"/><polyline class="cls-2" points="47.63 -15 48.89 -0.75 49.07 1.25"/><polyline class="cls-2" points="51.88 -13.75 53.53 -0.69 53.76 1.07"/><polyline class="cls-2" points="55.38 -13 57.18 -0.69 57.43 1.06"/><polyline class="cls-2" points="59.25 -13.38 62.24 -0.69 62.64 1"/><polyline class="cls-3" points="20.38 -20.25 40.8 -0.8 42.56 0.88"/><polyline class="cls-3" points="20.63 -7 25.57 -0.82 27.13 1.12"/><polyline class="cls-3" points="0 -5.5 4.25 -1.25 6.75 1.25"/><polyline class="cls-3" points="-2.38 -4.38 0.81 -0.56 2.03 0.91"/><polyline class="cls-2" points="68.38 -2.25 68.85 -1.08 69.72 1.05"/></pattern></defs><rect class="cls-4" x="-30.5" y="-10.5" width="1311" height="2682"/><polygon class="cls-5" points="-121 2632 -121 -24 1360 -24 1360 2632 -121 2632"/></svg>